PathFileType	4	(X/Y/Z)	D:\TRACE\v60_Jaco2_6-2-23\JustBodyDRS_Motion1_5-platform.trc
DataRate	CameraRate	NumFrames	NumMarkers	Units	OrigDataRate	OrigDataStartFrame	OrigNumFrames
100.00	100.00	      62	5	mm	100.00	1	      6702
Frame#	Time	Left_Front			Right_Front			Left_Aft			Right_Aft			Post			
		X1	Y1	Z1	X2	Y2	Z2	X3	Y3	Z3	X4	Y4	Z4	X5	Y5	Z5	

1	0.000	-800.59735	8.72481	-638.91962	769.49707	9.99894	-644.29114	-708.77673	7.98249	496.05545	732.83606	6.79577	506.22327	-14.30094	1307.92834	-961.84204	
2	0.010	-800.59113	8.76426	-638.95624	769.48395	10.02201	-644.29840	-708.78827	8.03373	496.02451	732.83221	6.82726	506.15976	-14.31655	1307.94324	-961.87036	
3	0.020	-800.56372	8.80269	-638.95728	769.43140	10.07366	-644.31757	-708.76520	8.05654	496.02869	732.83398	6.85638	506.19989	-14.34843	1308.02942	-961.84619	
4	0.030	-800.56140	8.80607	-638.96960	769.47656	10.04528	-644.32300	-708.80969	8.08031	496.04004	732.90228	6.83618	506.14185	-14.33993	1308.04138	-961.81116	
5	0.040	-800.58588	8.82590	-638.94128	769.50769	10.02807	-644.30469	-708.77911	8.05683	496.00894	732.86572	6.81080	506.14709	-14.34082	1308.00745	-961.87390	
6	0.050	-800.58600	8.75774	-638.95789	769.50488	10.01395	-644.27490	-708.76672	8.02241	496.02463	732.90198	6.82370	506.12866	-14.28837	1307.96497	-961.81671	
7	0.060	-800.56018	8.77742	-638.95313	769.38837	10.03491	-644.37439	-708.76648	8.05205	496.04074	732.86798	6.83347	506.15912	-14.34806	1307.97900	-961.85071	
8	0.070	-800.61243	8.82089	-638.96021	769.40515	10.06369	-644.33710	-708.75067	8.02664	496.01941	732.95313	6.85367	506.15686	-14.30901	1307.97986	-961.84363	
9	0.080	-800.52252	8.72491	-639.01007	769.54663	10.04780	-644.27081	-708.75348	8.06237	495.99811	732.94788	6.83901	506.09402	-14.33036	1308.01526	-961.85614	
10	0.090	-800.61688	8.82713	-638.91064	769.32153	10.08169	-644.37500	-708.79926	8.03002	495.99490	732.87262	6.83256	506.17120	-14.30815	1307.97070	-961.85425	
11	0.100	-800.62476	8.80606	-638.94000	769.38574	10.03964	-644.30682	-708.76648	7.99876	496.02249	732.81433	6.81161	506.17099	-14.30717	1307.97021	-961.86517	
12	0.110	-800.63513	8.83172	-638.90546	769.35205	10.07190	-644.31793	-708.75555	7.97720	496.05475	732.83734	6.75782	506.17212	-14.36306	1307.97607	-961.84912	
13	0.120	-800.63806	8.87291	-638.90210	769.34631	10.07006	-644.38098	-708.77307	8.02711	496.02176	732.86749	6.82269	506.21133	-14.30924	1307.95679	-961.82269	
14	0.130	-800.60376	8.80645	-638.89417	769.50275	10.03245	-644.30676	-708.74780	8.05419	495.98871	732.91858	6.81855	506.14465	-14.35788	1307.96948	-961.84387	
15	0.140	-800.60370	8.79973	-638.94586	769.39453	10.06743	-644.34418	-708.76221	7.99405	496.04608	732.86847	6.84587	506.20328	-14.31705	1307.95190	-961.85992	
16	0.150	-800.62512	8.78120	-638.94037	769.50073	10.00376	-644.29224	-708.76038	8.03175	496.01495	732.86169	6.82801	506.15009	-14.37199	1307.95605	-961.84601	
17	0.160	-800.57452	8.76100	-638.98041	769.46381	10.00301	-644.30402	-708.75562	7.97934	496.03711	732.80487	6.79608	506.18759	-14.37376	1307.98572	-961.85754	
18	0.170	-800.58490	8.82876	-638.94067	769.46851	10.02904	-644.32123	-708.79425	8.04490	496.03387	732.83759	6.81763	506.18045	-14.36402	1307.97998	-961.85693	
19	0.180	-800.59998	8.86395	-638.95886	769.40063	10.07751	-644.35535	-708.75720	8.05015	496.02197	732.91827	6.83250	506.15311	-14.28676	1308.01563	-961.85187	
20	0.190	-800.59625	8.79213	-638.92389	769.44611	10.06118	-644.34186	-708.78583	8.01982	496.00122	732.89288	6.83998	506.16370	-14.38210	1307.99866	-961.85760	
21	0.200	-800.57300	8.78007	-638.96802	769.47101	10.04013	-644.33191	-708.70807	7.99671	496.08932	732.94452	6.80419	506.20209	-14.33647	1308.00330	-961.86945	
22	0.210	-800.64313	8.80742	-638.88849	769.36041	10.04901	-644.31744	-708.76355	7.99229	496.04797	732.87939	6.81524	506.15253	-14.41303	1307.97510	-961.87708	
23	0.220	-800.63782	8.79533	-638.94226	769.37720	10.05472	-644.30969	-708.78992	8.01832	496.05820	732.85541	6.83952	506.19928	-14.35032	1307.96057	-961.85944	
24	0.230	-800.58704	8.80273	-638.91876	769.48230	10.04414	-644.31610	-708.75342	8.00200	496.03812	732.86536	6.81501	506.15292	-14.36740	1308.01428	-961.86066	
25	0.240	-800.57410	8.80777	-638.94037	769.39703	10.06287	-644.32660	-708.77057	8.02594	496.05545	732.84821	6.81457	506.18234	-14.36515	1308.01526	-961.84393	
26	0.250	-800.57758	8.76875	-638.98273	769.50653	10.03199	-644.32434	-708.76642	8.06222	496.03790	732.90436	6.84527	506.16681	-14.36920	1308.01282	-961.85358	
27	0.260	-800.58698	8.77953	-638.96307	769.41577	10.04700	-644.31378	-708.74811	8.01372	496.03677	732.89423	6.80195	506.14847	-14.30580	1307.97437	-961.85138	
28	0.270	-800.63275	8.81870	-638.92767	769.50256	10.02990	-644.33093	-708.75476	7.99750	496.05112	732.85541	6.79943	506.14975	-14.31708	1307.97107	-961.83679	
29	0.280	-800.57629	8.80119	-638.94464	769.55670	10.02277	-644.29047	-708.68103	7.99279	496.05038	732.93536	6.80784	506.17572	-14.35461	1307.99463	-961.83606	
30	0.290	-800.59058	8.82378	-638.95575	769.42731	10.04583	-644.29059	-708.75311	8.00474	496.03296	732.91663	6.79501	506.13358	-14.34842	1307.99414	-961.90466	
31	0.300	-800.59375	8.78905	-638.93732	769.47772	10.01459	-644.31122	-708.77496	8.02975	496.06540	732.84619	6.80451	506.18484	-14.32438	1307.97314	-961.86407	
32	0.310	-800.58197	8.70562	-638.93097	769.47321	10.02283	-644.31403	-708.77136	8.00427	496.05545	732.88275	6.83109	506.21628	-14.26071	1307.92261	-961.85944	
33	0.320	-800.63654	8.74627	-638.89252	769.35925	10.06439	-644.34760	-708.78607	7.98842	496.03311	732.76202	6.79792	506.17664	-14.30718	1307.98291	-961.87988	
34	0.330	-800.58899	8.80699	-638.95526	769.49646	10.03434	-644.28448	-708.74243	7.99225	496.04962	732.83490	6.79140	506.18842	-14.33183	1307.96716	-961.88336	
35	0.340	-800.59637	8.79475	-638.98700	769.38409	10.06566	-644.27405	-708.76447	8.05948	495.99835	732.85156	6.79644	506.19342	-14.37015	1307.98718	-961.87598	
36	0.350	-800.60352	8.81419	-638.88837	769.39081	10.07570	-644.32629	-708.75708	8.01829	496.01779	732.95575	6.82738	506.15961	-14.29763	1307.96814	-961.89886	
37	0.360	-800.58148	8.76508	-638.98059	769.42462	10.03358	-644.33044	-708.75372	8.02460	496.00000	732.91937	6.81952	506.16937	-14.29782	1307.94910	-961.88049	
38	0.370	-800.57721	8.73694	-638.97314	769.36804	10.05785	-644.31958	-708.71680	7.98682	496.03412	732.90570	6.80635	506.15775	-14.32189	1307.97717	-961.87811	
39	0.380	-800.58893	8.81132	-639.01031	769.39673	10.06388	-644.33893	-708.72577	8.04338	495.99069	732.94293	6.82404	506.16965	-14.38363	1308.02808	-961.85211	
40	0.390	-800.56012	8.80011	-638.97217	769.49982	10.03400	-644.31848	-708.73804	8.03155	496.01517	732.87976	6.82597	506.16818	-14.32063	1307.98682	-961.86188	
41	0.400	-800.57135	8.80168	-638.98352	769.53101	10.01630	-644.28015	-708.75928	8.03075	496.04608	732.88184	6.80417	506.13348	-14.36780	1308.00928	-961.85040	
42	0.410	-800.57709	8.81123	-638.96045	769.51306	10.03986	-644.32227	-708.77734	8.01541	496.00970	732.85590	6.81351	506.15952	-14.30730	1307.97778	-961.87164	
43	0.420	-800.56781	8.74351	-638.97821	769.50848	10.03587	-644.33014	-708.78052	8.04296	496.04001	732.90863	6.81040	506.15430	-14.36747	1307.98352	-961.88019	
44	0.430	-800.56781	8.71580	-638.97424	769.48596	10.00911	-644.31787	-708.73840	8.01987	496.03711	732.89893	6.82245	506.18030	-14.31157	1307.96301	-961.89380	
45	0.440	-800.57281	8.76218	-638.99738	769.38837	10.05908	-644.32922	-708.75092	7.97590	496.04453	732.97345	6.86442	506.19748	-14.34562	1307.99597	-961.85553	
46	0.450	-800.57648	8.84605	-638.93024	769.41913	10.06864	-644.34332	-708.73242	8.02201	496.02286	732.99658	6.80926	506.13623	-14.31508	1307.97791	-961.86102	
47	0.460	-800.59229	8.81853	-638.97400	769.50275	10.01249	-644.30054	-708.77832	8.01978	496.03064	732.89557	6.79881	506.18140	-14.35385	1307.96863	-961.87482	
48	0.470	-800.57678	8.80089	-638.90485	769.32654	10.01189	-644.36023	-708.77356	7.99761	496.07401	732.86084	6.80303	506.21426	-14.31652	1307.96313	-961.85382	
49	0.480	-800.58179	8.74190	-638.96265	769.49860	10.02659	-644.32092	-708.75916	8.01375	496.05899	732.93854	6.80590	506.16663	-14.29005	1307.96265	-961.89014	
50	0.490	-800.58173	8.80031	-638.99457	769.40265	10.03920	-644.34558	-708.75195	8.04065	496.03104	732.94128	6.84015	506.21298	-14.30659	1307.97290	-961.87457	
51	0.500	-800.55884	8.76108	-638.95929	769.40875	10.04517	-644.34790	-708.75732	8.01773	496.05243	732.94836	6.81894	506.19321	-14.28962	1307.94312	-961.86499	
52	0.510	-800.55591	8.74859	-639.00012	769.51001	10.04186	-644.29492	-708.76361	8.03336	495.99905	732.91119	6.78438	506.19598	-14.27562	1307.92432	-961.85907	
53	0.520	-800.63824	8.88596	-638.90247	769.38733	10.07979	-644.33020	-708.74695	8.01744	496.06070	732.91235	6.81007	506.17746	-14.21317	1307.92883	-961.82660	
54	0.530	-800.59119	8.80993	-638.94061	769.43799	10.06544	-644.33911	-708.79132	8.02842	496.04025	732.88562	6.82537	506.15433	-14.28216	1307.94775	-961.83612	
55	0.540	-800.60315	8.78016	-638.94037	769.34363	10.05113	-644.35400	-708.77197	8.00918	496.02078	732.86755	6.81511	506.18051	-14.30088	1307.95166	-961.85889	
56	0.550	-800.60004	8.85664	-638.96100	769.51160	10.01992	-644.28162	-708.75854	8.01745	496.07108	732.88849	6.83733	506.15988	-14.31299	1307.96033	-961.83789	
57	0.560	-800.56573	8.80489	-639.00275	769.37445	10.05211	-644.35046	-708.80524	8.03638	496.01230	732.91321	6.82743	506.17120	-14.24904	1307.97424	-961.87000	
58	0.570	-800.57861	8.78345	-638.92712	769.35400	10.04819	-644.33521	-708.78705	8.00207	496.04092	732.90887	6.82914	506.18842	-14.33557	1307.96582	-961.86047	
59	0.580	-800.57208	8.78260	-638.98590	769.32813	10.05579	-644.34204	-708.76807	8.03167	496.02216	732.86041	6.81058	506.19186	-14.28297	1307.98840	-961.84607	
60	0.590	-800.60797	8.81812	-638.95502	769.38300	10.05741	-644.35895	-708.71844	8.01358	496.06699	732.93073	6.86519	506.20270	-14.40866	1308.04736	-961.86145	
61	0.600	-800.56097	8.76792	-638.97321	769.45734	10.07323	-644.31836	-708.75458	8.04667	496.02359	732.89178	6.81871	506.15686	-14.34849	1308.02808	-961.83710	
62	0.610	-800.57666	8.75707	-638.98987	769.53064	10.03094	-644.29541	-708.78271	8.04396	496.03134	732.87964	6.80315	506.16110	-14.36905	1307.99585	-961.84943	
